<?xml version="1.0" encoding="UTF-8"?>
<!DOCTYPE svg PUBLIC "-//W3C//DTD SVG 1.1//EN" "http://www.w3.org/Graphics/SVG/1.1/DTD/svg11.dtd">
<svg version="1.2" width="773.14mm" height="746.96mm" viewBox="3502 15205 77314 74696" preserveAspectRatio="xMidYMid" fill-rule="evenodd" stroke-width="28.222" stroke-linejoin="round" xmlns="http://www.w3.org/2000/svg" xmlns:ooo="http://xml.openoffice.org/svg/export" xmlns:xlink="http://www.w3.org/1999/xlink" xmlns:presentation="http://sun.com/xmlns/staroffice/presentation" xmlns:smil="http://www.w3.org/2001/SMIL20/" xmlns:anim="urn:oasis:names:tc:opendocument:xmlns:animation:1.0" xml:space="preserve">
 <defs class="EmbeddedBulletChars">
  <g id="bullet-char-template-57356" transform="scale(0.00048828125,-0.00048828125)">
   <path d="M 580,1141 L 1163,571 580,0 -4,571 580,1141 Z"/>
  </g>
  <g id="bullet-char-template-57354" transform="scale(0.00048828125,-0.00048828125)">
   <path d="M 8,1128 L 1137,1128 1137,0 8,0 8,1128 Z"/>
  </g>
  <g id="bullet-char-template-10146" transform="scale(0.00048828125,-0.00048828125)">
   <path d="M 174,0 L 602,739 174,1481 1456,739 174,0 Z M 1358,739 L 309,1346 659,739 1358,739 Z"/>
  </g>
  <g id="bullet-char-template-10132" transform="scale(0.00048828125,-0.00048828125)">
   <path d="M 2015,739 L 1276,0 717,0 1260,543 174,543 174,936 1260,936 717,1481 1274,1481 2015,739 Z"/>
  </g>
  <g id="bullet-char-template-10007" transform="scale(0.00048828125,-0.00048828125)">
   <path d="M 0,-2 C -7,14 -16,27 -25,37 L 356,567 C 262,823 215,952 215,954 215,979 228,992 255,992 264,992 276,990 289,987 310,991 331,999 354,1012 L 381,999 492,748 772,1049 836,1024 860,1049 C 881,1039 901,1025 922,1006 886,937 835,863 770,784 769,783 710,716 594,584 L 774,223 C 774,196 753,168 711,139 L 727,119 C 717,90 699,76 672,76 641,76 570,178 457,381 L 164,-76 C 142,-110 111,-127 72,-127 30,-127 9,-110 8,-76 1,-67 -2,-52 -2,-32 -2,-23 -1,-13 0,-2 Z"/>
  </g>
  <g id="bullet-char-template-10004" transform="scale(0.00048828125,-0.00048828125)">
   <path d="M 285,-33 C 182,-33 111,30 74,156 52,228 41,333 41,471 41,549 55,616 82,672 116,743 169,778 240,778 293,778 328,747 346,684 L 369,508 C 377,444 397,411 428,410 L 1163,1116 C 1174,1127 1196,1133 1229,1133 1271,1133 1292,1118 1292,1087 L 1292,965 C 1292,929 1282,901 1262,881 L 442,47 C 390,-6 338,-33 285,-33 Z"/>
  </g>
  <g id="bullet-char-template-9679" transform="scale(0.00048828125,-0.00048828125)">
   <path d="M 813,0 C 632,0 489,54 383,161 276,268 223,411 223,592 223,773 276,916 383,1023 489,1130 632,1184 813,1184 992,1184 1136,1130 1245,1023 1353,916 1407,772 1407,592 1407,412 1353,268 1245,161 1136,54 992,0 813,0 Z"/>
  </g>
  <g id="bullet-char-template-8226" transform="scale(0.00048828125,-0.00048828125)">
   <path d="M 346,457 C 273,457 209,483 155,535 101,586 74,649 74,723 74,796 101,859 155,911 209,963 273,989 346,989 419,989 480,963 531,910 582,859 608,796 608,723 608,648 583,586 532,535 482,483 420,457 346,457 Z"/>
  </g>
  <g id="bullet-char-template-8211" transform="scale(0.00048828125,-0.00048828125)">
   <path d="M -4,459 L 1135,459 1135,606 -4,606 -4,459 Z"/>
  </g>
  <g id="bullet-char-template-61548" transform="scale(0.00048828125,-0.00048828125)">
   <path d="M 173,740 C 173,903 231,1043 346,1159 462,1274 601,1332 765,1332 928,1332 1067,1274 1183,1159 1299,1043 1357,903 1357,740 1357,577 1299,437 1183,322 1067,206 928,148 765,148 601,148 462,206 346,322 231,437 173,577 173,740 Z"/>
  </g>
 </defs>
 <g class="Page">
  <g class="com.sun.star.drawing.ClosedBezierShape">
   <g id="id3">
    <rect class="BoundingBox" stroke="none" fill="none" x="3502" y="15205" width="77314" height="74696"/>
    <g>
     <defs>
      <linearGradient id="gradient1" x1="16322" y1="7803" x2="67995" y2="97302" gradientUnits="userSpaceOnUse">
       <stop offset="0" style="stop-color:rgb(255,134,13)"/>
       <stop offset="1" style="stop-color:rgb(184,92,0)"/>
      </linearGradient>
     </defs>
     <path style="fill:url(#gradient1)" d="M 71410,28085 L 72158,28933 72881,29803 73578,30693 74250,31605 80815,60753 80611,61798 80378,62836 80116,63868 79826,64892 61558,87632 60392,88260 59207,88848 58005,89394 56786,89900 27629,89900 26471,89421 25327,88904 24199,88351 23088,87761 4546,64746 4233,63619 3954,62482 3710,61338 3502,60186 10322,31388 10935,30565 11570,29759 12226,28970 12902,28199 39641,15288 42208,15205 44929,15299 71410,28085 Z"/>
    </g>
   </g>
  </g>
  <g class="com.sun.star.drawing.ClosedBezierShape">
   <g id="id4">
    <rect class="BoundingBox" stroke="none" fill="none" x="14752" y="26734" width="54930" height="54930"/>
    <path fill="rgb(255,255,255)" fill-opacity="0.51" stroke="rgb(255,255,255)" stroke-opacity="0.51" d="M 59403,64126 C 61145,61108 62062,57685 62062,54200 62062,50716 61145,47293 59403,44275 57660,41258 55154,38752 52137,37009 49119,35267 45696,34350 42211,34350 38727,34350 35304,35267 32286,37009 29269,38752 26763,41258 25020,44275 23278,47293 22361,50716 22361,54201 22361,57685 23278,61108 25020,64126 26763,67143 29269,69649 32286,71392 35304,73134 38727,74051 42212,74051 45696,74051 49119,73134 52137,71392 55154,69649 57660,67143 59403,64126 Z M 66001,67931 C 63591,72106 60124,75573 55949,77983 51774,80394 47038,81663 42217,81663 37395,81663 32659,80394 28484,77983 24309,75573 20842,72106 18432,67931 16021,63756 14752,59020 14752,54199 14752,49377 16021,44641 18432,40466 20842,36291 24309,32824 28484,30414 32659,28003 37395,26734 42216,26734 47038,26734 51774,28003 55949,30414 60124,32824 63591,36291 66001,40466 68412,44641 69681,49377 69681,54198 69681,59020 68412,63756 66001,67931 Z"/>
   </g>
  </g>
  <g class="com.sun.star.drawing.ClosedBezierShape">
   <g id="id5">
    <rect class="BoundingBox" stroke="none" fill="none" x="14753" y="26735" width="47607" height="54931"/>
    <path fill="rgb(255,255,255)" stroke="none" d="M 62359,72871 C 60498,74878 58340,76604 55950,77984 51775,80395 47039,81664 42218,81664 37396,81664 32660,80395 28485,77984 24310,75574 20843,72107 18433,67932 16022,63757 14753,59021 14753,54200 14753,49378 16022,44642 18433,40467 20843,36292 24310,32825 28485,30415 32660,28004 37396,26735 42217,26735 47039,26735 51775,28004 55950,30415 58200,31714 60245,33320 62029,35179 L 56594,40519 C 55290,39148 53791,37965 52138,37010 49120,35268 45697,34351 42212,34351 38728,34351 35305,35268 32287,37010 29270,38753 26764,41259 25021,44276 23279,47294 22362,50717 22362,54202 22362,57686 23279,61109 25021,64127 26764,67144 29270,69650 32287,71393 35305,73135 38728,74052 42213,74052 45697,74052 49120,73135 52138,71393 53931,70357 55544,69052 56923,67529 L 62359,72871 Z"/>
   </g>
  </g>
  <g class="Group">
   <g class="com.sun.star.drawing.CustomShape">
    <g id="id6">
     <rect class="BoundingBox" stroke="none" fill="none" x="28817" y="46826" width="21431" height="19773"/>
     <path fill="none" stroke="rgb(255,255,255)" stroke-width="1058" stroke-linejoin="round" d="M 48182,49363 C 46948,47912 45516,47046 45031,47458 L 29511,60643 C 29026,61056 29648,62609 30881,64061 32114,65512 33548,66378 34033,65966 L 49553,52781 C 50038,52368 49415,50814 48182,49363 Z"/>
     <path fill="none" stroke="rgb(255,255,255)" stroke-width="1058" stroke-linejoin="round" d="M 48182,49363 C 46948,47912 45516,47046 45031,47458 44545,47871 45168,49424 46402,50876 47634,52327 49067,53193 49553,52781 50038,52368 49415,50814 48182,49363 Z"/>
    </g>
   </g>
   <g class="com.sun.star.drawing.OpenBezierShape">
    <g id="id7">
     <rect class="BoundingBox" stroke="none" fill="none" x="46966" y="46430" width="8103" height="4007"/>
     <path fill="none" stroke="rgb(255,255,255)" stroke-width="529" stroke-linejoin="round" d="M 47231,50171 C 53060,45218 54803,47012 54803,47012"/>
    </g>
   </g>
   <g class="com.sun.star.drawing.PolyPolygonShape">
    <g id="id8">
     <rect class="BoundingBox" stroke="none" fill="none" x="49446" y="41880" width="7090" height="9042"/>
     <path fill="rgb(255,255,255)" stroke="none" d="M 54353,46009 L 54959,43516 53202,44661 52436,41880 52157,44312 50538,42439 51415,44519 49446,43664 51259,45772 50061,45997 51464,46890 50851,47821 51907,48031 51533,49325 52265,48576 52359,50055 53408,48702 55723,50921 54782,48309 56535,48864 54807,47012 56237,46268 54353,46009 Z"/>
    </g>
   </g>
   <g class="com.sun.star.drawing.PolyPolygonShape">
    <g id="id9">
     <rect class="BoundingBox" stroke="none" fill="none" x="29395" y="47673" width="20004" height="18416"/>
     <path fill="rgb(255,255,255)" stroke="none" d="M 44953,47673 L 45270,49578 46540,51166 47810,52436 49398,53071 34158,66088 31618,65136 30030,62913 29395,60691 31935,58468 44953,47673 Z"/>
    </g>
   </g>
   <g class="com.sun.star.drawing.LineShape">
    <g id="id10">
     <rect class="BoundingBox" stroke="none" fill="none" x="30330" y="49258" width="14359" height="12304"/>
     <path fill="none" stroke="rgb(234,117,0)" stroke-width="706" stroke-linejoin="round" d="M 30683,61208 L 44335,49611"/>
    </g>
   </g>
  </g>
 </g>
</svg>